<?xml version="1.0" standalone="no"?><!DOCTYPE svg PUBLIC "-//W3C//DTD SVG 1.1//EN" "http://www.w3.org/Graphics/SVG/1.1/DTD/svg11.dtd"><svg t="1615715531297" class="icon" viewBox="0 0 1024 1024" version="1.1" xmlns="http://www.w3.org/2000/svg" p-id="590" xmlns:xlink="http://www.w3.org/1999/xlink" width="200" height="200"><defs><style type="text/css"></style></defs><path d="M490.8 531.7L746.1 857.9c3 3.9 7.7 6.1 12.6 6.1L836 864c6.69999999 0 10.4-7.7 6.30000001-12.9L576.9 512 842.30000001 172.9c4.1-5.2 0.4-12.9-6.30000001-12.9l-77.3 0c-4.9 0-9.6 2.3-12.6 6.1l-255.3 326.1c-9.1 11.7-9.09999999 27.9 0 39.5z" p-id="591"></path><path d="M186.8 531.7L442.1 857.9c3 3.9 7.7 6.1 12.6 6.1L532 864c6.69999999 0 10.4-7.7 6.3-12.89999999L272.9 512 538.3 172.89999999c4.1-5.2 0.4-12.9-6.3-12.89999999l-77.3 0c-4.9 0-9.6 2.3-12.6 6.1l-255.3 326.1c-9.1 11.7-9.09999999 27.9 0 39.5z" p-id="592"></path></svg>